<svg width="11" height="11" viewBox="0 0 15 15" fill="none" xmlns="http://www.w3.org/2000/svg">
<path fill-rule="evenodd" clip-rule="evenodd" d="M0.189527 10.8105C-0.0631756 10.5578 -0.0631756 10.1481 0.189527 9.89547L8.79081 1.29412H3.2353C2.87794 1.29412 2.58824 1.00442 2.58824 0.647059C2.58824 0.289701 2.87794 0 3.2353 0H10.3529C10.5245 0 10.6892 0.0681742 10.8105 0.189524C10.9318 0.310873 11 0.475446 11 0.647059V7.76472C11 8.12208 10.7102 8.41178 10.3529 8.41178C9.99564 8.41178 9.70588 8.12208 9.70588 7.76472V2.2092L1.1046 10.8105C0.851908 11.0632 0.442216 11.0632 0.189527 10.8105Z" fill="#00E723"/>
</svg>
